<?xml version="1.0" encoding="UTF-8"?>
<svg id="Calque_1" data-name="Calque 1" xmlns="http://www.w3.org/2000/svg" viewBox="0 0 1702 924">
  <defs>
    <style>
      .cls-1 {
        fill: #fff;
      }
    </style>
  </defs>
  <path class="cls-1" d="M519.51,786.99l-152.67,97.36,82.15-85.44,152.49-157.33,56.66-57.15V242.7c64.46,48.35,127.06,97.1,189.66,147.45l178.37-129.76,29.06-21.31c-33.86,14.05-65.84,29.68-100.61,41.85l274.52-181.69,95.24-61.57-66.82,66.97-124.03,122.85-100.55,98.38-49.11,48.18-256.96,254.32,75.36-27,32.98-13.05-172.32,108.57-143.4,90.11ZM810.5,461.85l-73.55-64.99.06,126.53,73.5-61.54Z"/>
  <polygon class="cls-1" points="505.43 581.36 385.77 581.44 406.04 553.58 406.07 463.45 259.58 463.39 222.51 528.32 267.17 539.69 83.56 688.37 40.75 723.57 91.44 615.33 151.46 488.36 276.9 221.04 326.74 117.71 304 285.89 271.57 398.82 406.07 398.85 406.01 301.49 385.53 272.41 505.81 272.38 486.3 302.05 486.25 383.04 486.21 496.94 486.39 553.47 505.43 581.36"/>
  <path class="cls-1" d="M1150.14,461.56l-20.92-.02.04,90.14,20.55,29.73-96.06.05-12.04-14.79,9.75-15.93-.03-224.03,57.36-54.3,132.23-.05,59.66,62.94v71.66s-63.78,51.25-63.78,51.25l70.83,94.16,141.58,191.15c-74.75-57.84-148.27-113.91-225.21-167.65l-73.96-114.32ZM1226.51,380.66v-30.89s-21.71-20.63-21.71-20.63l-75.58-.08.03,72.89h74.37s22.9-21.29,22.9-21.29Z"/>
  <path class="cls-1" d="M1395.47,494.46l-17.78,54.64,25.77,32.33-54.09.05-37.8-53.08,64.24-186.37,14.7-42.25-9.83-60.54-16.06-95.8,110.3,160.53,63.14,147.05,123.13,287.36-92.16-90.35-81.57-75.77,15.53-22.06-25.51-55.51-82.01-.21ZM1460.59,444.96l-30.05-74.9-22.48,75.05,52.52-.15Z"/>
  <polygon class="cls-1" points="639.12 581.4 522.96 581.45 541.65 552.27 541.68 302.46 523.77 272.38 639.3 272.37 621.27 301.47 621.29 553.67 639.12 581.4"/>
  <path class="cls-1" d="M1153.36,708.61c-83.69-50.58-165.63-98.76-250.84-145.51l15.92-21.49-1.92-78.82,25.51-24.87,59.91-58.48-9.65,148.53,29.47,32.41,90.77,102,40.83,46.24Z"/>
</svg>