<?xml version="1.0" encoding="UTF-8"?>
<svg id="Calque_2" data-name="Calque 2" xmlns="http://www.w3.org/2000/svg" viewBox="0 0 952.37 208.91">
  <defs>
    <style>
      .cls-1 {
        fill: #fff;
      }
    </style>
  </defs>
  <g id="Calque_1-2" data-name="Calque 1">
    <g>
      <path class="cls-1" d="M0,68.3V5.19h257.36v63.12l-135.87,72.75h135.87v63.27H0v-63.27l131.12-72.75H0Z"/>
      <path class="cls-1" d="M560.49,150.83c.44,34.82-28.89,53.49-63.12,53.49h-204.02V5.19h189.35c34.52-.15,63.71,18.67,63.27,53.34,0,19.11-8.89,33.78-23.11,42.82,22.52,7.26,37.63,24.45,37.63,49.49ZM370.99,52.45v26.82h89.94c6.67,0,12.15-6.82,12.15-13.48s-5.48-13.33-12.15-13.33h-89.94ZM475.44,156.9c6.67,0,12.15-6.67,12.15-13.33s-5.48-13.33-12.15-13.33h-104.45v26.67h104.45Z"/>
      <path class="cls-1" d="M658.86,4.89v199.13h-77.64V4.89h77.64Z"/>
      <path class="cls-1" d="M817.1,94.68h135.27v114.23h-38.82l-3.85-30.97c-23.11,22.82-58.23,30.97-92.01,30.97-74.97-.3-136.31-21.93-136.01-97.2v-14.52C681.38,21.78,742.72.15,817.69,0c69.04,0,125.94,18.82,134.68,80.16h-82.53c-4.89-6.67-12-11.11-21.19-13.48s-19.56-3.56-30.97-3.56c-31.85.44-58.82,6.37-58.38,38.82v4.89c-.44,32.74,26.52,38.37,58.38,38.82,30.67,0,50.23-1.78,61.93-16.89h-62.52v-34.08Z"/>
    </g>
  </g>
</svg>