<?xml version="1.0" encoding="UTF-8"?>
<svg id="Calque_2" data-name="Calque 2" xmlns="http://www.w3.org/2000/svg" width="248.74" height="127.08" viewBox="0 0 248.74 127.08">
  <defs>
    <style>
      .cls-1 {
        fill: #fff;
      }
    </style>
  </defs>
  <g id="_ëÎÓÈ_1" data-name="ëÎÓÈ 1">
    <g>
      <path class="cls-1" d="M124.36,127.08c-.67,0-1.34,0-2-.02-31.97-.24-62.15-6.62-84.95-17.94C13.29,97.12,0,80.94,0,63.55,0,44.97,15.63,27.42,42.89,15.41,64.91,5.7,93.15.24,122.41.02c1.22-.03,2.64-.03,3.96,0,29.21.21,57.45,5.68,79.49,15.39,27.26,12.01,42.89,29.56,42.89,48.14,0,17.39-13.29,33.58-37.41,45.58-22.82,11.32-53.01,17.69-85.01,17.94-.61.01-1.29.01-1.96.01ZM124.36,121.69c.65,0,1.26,0,1.87-.01,31.24-.24,60.6-6.41,82.69-17.38,22.19-11.04,34.42-25.52,34.42-40.76,0-16.34-14.46-32.09-39.67-43.2-21.38-9.42-48.86-14.72-77.4-14.93-.66-.02-1.29-.02-1.92-.02-.62,0-1.25,0-1.87.01-28.59.21-56.07,5.51-77.43,14.93C19.85,31.46,5.39,47.2,5.39,63.55c0,15.24,12.22,29.71,34.42,40.76,22.08,10.96,51.43,17.13,82.64,17.37.65.01,1.28.01,1.91.01Z"/>
      <path class="cls-1" d="M124.36,35.75c-9.17,0-18.34-.51-27.25-1.51-11.2-1.27-22-3.32-32.11-6.11-7.88-2.17-15.32-4.79-22.12-7.78l-5.6-2.46,5.6-2.47C64.91,5.7,93.15.24,122.41.02c1.22-.03,2.64-.03,3.96,0,29.21.21,57.45,5.68,79.49,15.39l5.6,2.47-5.6,2.47c-6.78,2.99-14.23,5.61-22.13,7.78-10.11,2.79-20.91,4.84-32.09,6.11-8.91,1-18.09,1.51-27.27,1.51ZM51.04,17.88c4.87,1.88,10.03,3.57,15.4,5.06,9.84,2.71,20.36,4.71,31.28,5.95,17.43,1.96,35.89,1.95,53.31,0,10.9-1.23,21.42-3.24,31.26-5.95,5.38-1.49,10.54-3.18,15.41-5.06-20.41-7.87-45.48-12.27-71.42-12.46-.66-.02-1.27,0-1.92-.02-.62,0-1.25,0-1.87.01-25.99.19-51.06,4.59-71.45,12.46Z"/>
      <path class="cls-1" d="M124.36,127.08c-.67,0-1.34,0-2-.02-31.97-.24-62.15-6.62-84.95-17.94l-4.86-2.41,4.85-2.42c7.23-3.6,15.28-6.72,23.93-9.29,10.65-3.2,22.21-5.56,34.35-7.01,18.81-2.22,38.75-2.22,57.36.02,12.05,1.43,23.61,3.78,34.34,6.98,8.66,2.58,16.71,5.71,23.94,9.3l4.86,2.42-4.86,2.41c-22.81,11.32-53,17.69-85.01,17.94-.61.01-1.29.01-1.96.01ZM124.36,121.69c.63,0,1.26,0,1.87-.01,28.87-.22,56.13-5.51,77.54-14.96-5.56-2.46-11.57-4.65-17.92-6.54-10.44-3.12-21.69-5.4-33.44-6.79-18.2-2.18-37.71-2.19-56.08-.01-11.83,1.41-23.09,3.71-33.45,6.82-6.35,1.88-12.35,4.07-17.92,6.53,21.4,9.45,48.65,14.74,77.49,14.96.66.01,1.28,0,1.91.01Z"/>
      <path class="cls-1" d="M124.36,127.08c-.67,0-1.34,0-2-.02-24.94-.51-48.24-10.88-62.33-27.74-8.82-10.57-13.48-22.95-13.48-35.78,0-14.5,6.13-28.67,17.25-39.91C78.18,9.1,99.53.5,122.37.02c1.29-.03,2.68-.03,3.99,0,22.85.47,44.19,9.08,58.56,23.61,11.13,11.21,17.27,25.39,17.27,39.91,0,12.84-4.67,25.21-13.5,35.77-14.07,16.86-37.37,27.24-62.34,27.75-.65.01-1.32.01-1.99.01ZM124.36,121.69c.64,0,1.26,0,1.87-.01,23.43-.48,45.23-10.13,58.32-25.82,8.01-9.58,12.24-20.76,12.24-32.31,0-13.28-5.43-25.77-15.71-36.12-13.39-13.55-33.38-21.57-54.85-22.01-.63-.02-1.26-.02-1.88-.02-.62,0-1.25,0-1.87.01-21.47.44-41.46,8.47-54.86,22.01-10.27,10.37-15.69,22.86-15.69,36.12,0,11.56,4.23,22.74,12.23,32.33,13.1,15.67,34.9,25.32,58.31,25.8.62.01,1.25,0,1.88.01Z"/>
      <path class="cls-1" d="M124.37,127.08c-19.28,0-34.38-27.91-34.38-63.54S105.09,0,124.37,0s34.38,27.91,34.38,63.54-15.1,63.54-34.38,63.54ZM124.37,5.4c-15.72,0-28.99,26.63-28.99,58.14s13.28,58.15,28.99,58.15,28.99-26.63,28.99-58.15-13.28-58.14-28.99-58.14Z"/>
      <rect class="cls-1" x="2.69" y="60.85" width="243.36" height="5.39"/>
    </g>
  </g>
</svg>