<?xml version="1.0" encoding="UTF-8"?>
<svg id="Calque_2" data-name="Calque 2" xmlns="http://www.w3.org/2000/svg" viewBox="0 0 499.13 499.09">
  <defs>
    <style>
      .cls-1 {
        fill: #fff;
      }
    </style>
  </defs>
  <g id="Calque_1-2" data-name="Calque 1">
    <g>
      <path class="cls-1" d="M319.45,499.05l-141.53.04-44.75-2.09c-20.32-.95-39.47-6.29-57.87-15.31-24.49-12.01-44.41-31.54-56.87-55.86-9.79-19.1-14.59-39.41-16.36-60.66C.81,350.04,0,335.83,0,320.43v-141.76c0-15.67.81-30.15,2.14-45.54,1.78-20.74,6.48-40.52,15.92-59.21,12.08-23.94,31.36-43.31,55.21-55.57,18.86-9.69,38.88-14.45,59.89-16.24C148.35.81,162.69.04,178.08.04L321.37,0c15.34,0,29.54.82,44.63,2.11,21,1.8,41.06,6.49,59.91,16.21,23.83,12.28,43.1,31.68,55.19,55.6,9.44,18.69,14.93,38.43,15.92,59.21l2.12,44.63v143.58s-2.12,44.63-2.12,44.63c-1.02,21.52-6.85,41.98-16.98,61.17-12.27,23.26-31.38,42.03-54.83,53.92-18.92,9.59-38.98,15.09-60.01,16l-45.74,1.98ZM318.62,454.08l41.87-1.81c10.92-.47,21.29-2.84,31.71-6.17,24.5-7.82,43.73-26.11,52.59-50.24,4.22-11.49,7.02-23.04,7.56-35.31l1.81-41.12v-139.75s-1.87-42.03-1.87-42.03c-.49-10.87-3.01-21.13-6.41-31.47-8.38-25.5-28.12-44.99-53.66-53.19-12.39-3.98-24.6-6.34-37.69-6.7l-56.03-1.56-117.88.21c-14.44.03-27.82.81-42.04,1.83-55.45,3.99-87.88,36.41-91.74,91.88-.99,14.3-1.81,27.78-1.81,42.24v137.33c0,14.76.81,28.54,1.89,43.1,2.78,37.4,19.81,69.68,55.64,83.17,11.71,4.41,23.57,7.25,36.1,7.77l43.41,1.79,136.54.02Z"/>
      <path class="cls-1" d="M234.57,122.06c71.07-8.37,134.34,42.81,142.52,112.45,8.28,70.49-42.23,134.28-112.65,142.49-70.02,8.16-133.61-41.75-142.24-111.78-8.61-69.88,41.07-134.77,112.37-143.16ZM238.56,167.06c-46.56,6.23-77.87,49.16-71.41,94.3s48.28,76.76,93.43,70.72c45.44-6.08,77.64-48.02,71.51-93.57s-47.26-77.66-93.54-71.46Z"/>
      <path class="cls-1" d="M375.61,87.1c16.73-4.23,32.68,5.98,36.57,22.07s-5.88,32.5-22.84,36.25c-14.98,3.31-31.12-5.62-35.31-21.65s4.54-32.35,21.59-36.66Z"/>
    </g>
  </g>
</svg>