<?xml version="1.0" encoding="UTF-8"?>
<svg id="Calque_2" xmlns="http://www.w3.org/2000/svg" version="1.1" viewBox="0 0 103.5 79.3">
  <!-- Generator: Adobe Illustrator 30.6.0, SVG Export Plug-In . SVG Version: 2.1.4 Build 109)  -->
  <defs>
    <style>
      .st0 {
        fill: #fff;
      }
    </style>
  </defs>
  <g id="Calque_1-2">
    <g>
      <g>
        <path class="st0" d="M11.4,16.9c-.3.1-.5.4-.5.8.2,10.8.3,21.5.5,32.3,0,.4.2.6.5.5.7,0,1.4-.1,2.1-.1.3,0,.5-.2.5-.6,0-3.8-.1-7.6-.2-11.4,0-.8.3-1.2,1-1.3,2.6-.5,5.2-.9,7.8-1.2.7,0,1,.3,1,1.1,0,5.2.2,10.3.2,15.5,0,4-1.5,6-4.6,5.9H5.3C1.7,58.2,0,56.4,0,52.9V20.7C0,17.2,1.6,14.3,4.9,12.4c5.7-3.2,11.6-5.9,17.6-7.8.7-.2,1,0,1,.9.1,6.2.2,12.5.3,18.7,0,.9-.3,1.3-1,1.4-2.6.5-5.2,1.1-7.8,1.8-.7.2-1-.1-1-.9,0-3.4-.1-6.8-.2-10.1,0-.3-.1-.4-.4-.3-.7.3-1.4.6-2.2.8h0Z"/>
        <path class="st0" d="M27.1,50.6c-.2-13.2-.4-26.4-.6-39.6,0-5.1,1.9-8.2,5.9-9.1C37.2.9,42,.3,46.9,0c4.2-.2,6.2,2.6,6.2,8,0,14.1,0,28.1,0,42.1,0,5.4-2,8.1-6,8.1h-14c-3.9,0-5.9-2.6-6-7.6h0ZM38.7,10c-.3,0-.5.3-.5.7.1,12.6.2,25.2.4,37.8,0,.4.2.7.5.6.7,0,1.4,0,2.1,0,.3,0,.5-.3.5-.7,0-12.7-.2-25.4-.3-38.1,0-.4-.2-.7-.5-.6-.7,0-1.5.2-2.2.2h0Z"/>
        <path class="st0" d="M57.1,58.3c-.7,0-1-.4-1-1.4,0-18.5.1-37,.2-55.6,0-.9.3-1.3,1-1.3,3.4.2,6.9.6,10.2,1.2.7.1,1,.6,1,1.5-.2,14.8-.3,29.7-.5,44.5,0,.4.2.7.5.7,1.9,0,3.9.1,5.8.2.7,0,1,.4,1,1.3,0,2.5,0,5-.1,7.5,0,.9-.3,1.3-1,1.3h-17.1,0Z"/>
        <path class="st0" d="M77,57c.3-17.4.6-34.8.8-52.1,0-.9.3-1.2,1-1,6.2,1.8,12.2,4.3,17.9,7.5,4.5,2.5,6.7,6.5,6.7,11.2v28.5c0,4.7-2.4,7.1-7.2,7.2h-18.3c-.7,0-1-.4-1-1.3h0ZM89.8,16c-.2,0-.4,0-.4.3-.2,11.2-.4,22.3-.5,33.5,0,.3.1.4.4.5.6,0,1.2,0,1.8.1.6,0,.9-.3.9-.9.2-10.5.3-21,.5-31.4,0-.6-.3-1.1-.8-1.3-.6-.2-1.2-.5-1.8-.7h0Z"/>
      </g>
      <g>
        <path class="st0" d="M20.9,67.2v2.1c0,1-.4,2-1.1,2.7s-1.6,1-2.5,1h-.5v5.9h-3.1v-15.5h3.6c1,0,1.9.4,2.5,1s1.1,1.6,1.1,2.7h0ZM17.8,66.7c0-.4-.1-.7-.5-.7h-.5v4.5h.5c.4,0,.5-.2.5-.6v-3.2h0Z"/>
        <path class="st0" d="M29.1,78.9s0,0,0,0h-2.9c-.1,0-.3-.3-.3-.8v-4.7c0-.4-.1-.6-.5-.6h-.5v6.1h-3v-15.5h3.6c1,0,1.9.4,2.5,1s1.1,1.6,1.1,2.7v2c0,.9-.5,1.9-1.1,2.5.8.6,1.1,1.6,1.1,2.5v4c0,.2,0,.4.1.6h0s0,0,0,0ZM25.9,66.7c0-.4-.1-.7-.5-.7h-.5v4.3h.5c.4,0,.5-.2.5-.6v-3h0Z"/>
        <path class="st0" d="M37,66.7v9.3c0,1.1-.4,1.8-1.1,2.5-.7.7-1.6.8-2.5.8s-1.9-.2-2.5-.8-1.1-1.5-1.1-2.5v-9.3c0-1,.4-1.8,1.1-2.5.7-.6,1.6-.8,2.5-.8s1.9.2,2.5.8c.7.7,1.1,1.5,1.1,2.5ZM34,66.5c0-.4-.4-.5-.6-.5s-.6,0-.6.5v9.6c0,.4.4.5.6.5s.6,0,.6-.5v-9.6Z"/>
        <path class="st0" d="M45.2,67.2v8c0,1.1-.4,2-1.1,2.7-.7.6-1.5,1-2.5,1h-3.6v-15.5h3.6c1,0,1.8.4,2.5,1,.7.7,1.1,1.6,1.1,2.7h0ZM42.1,66.7c0-.4-.2-.7-.5-.7h-.5v10.4h.5c.4,0,.5-.2.5-.7v-9.1h0Z"/>
        <path class="st0" d="M50.1,63.5h3v12.3c0,1-.4,1.9-1.1,2.6-.7.6-1.6.8-2.5.8s-1.9-.2-2.5-.8c-.7-.7-1.1-1.6-1.1-2.6v-12.3h3v12.6c0,.4.4.5.6.5s.6,0,.6-.5v-12.6h0Z"/>
        <path class="st0" d="M58.1,72.9h3v3c0,1.1-.4,1.8-1.1,2.5-.6.6-1.5.8-2.5.8s-1.8-.2-2.5-.8c-.7-.7-1.1-1.5-1.1-2.5v-9.2c0-1.1.4-1.9,1.1-2.5.6-.6,1.5-.8,2.5-.8s1.8.2,2.5.8c.7.7,1.1,1.5,1.1,2.5v3.1h-3v-3.3c0-.4-.4-.5-.5-.5s-.5,0-.5.5v9.6c0,.4.4.5.5.5s.5,0,.5-.5v-3.2Z"/>
        <path class="st0" d="M63.7,66.1h-2v-2.6h7.2v2.6h-2v12.9h-3.1v-12.9h0Z"/>
        <path class="st0" d="M69.9,63.5h3.1v15.5h-3.1v-15.5Z"/>
        <path class="st0" d="M81.3,66.7v9.3c0,1.1-.4,1.8-1.1,2.5-.7.7-1.6.8-2.5.8s-1.9-.2-2.5-.8-1.1-1.5-1.1-2.5v-9.3c0-1,.4-1.8,1.1-2.5.7-.6,1.6-.8,2.5-.8s1.9.2,2.5.8c.7.7,1.1,1.5,1.1,2.5ZM78.2,66.5c0-.4-.4-.5-.6-.5s-.6,0-.6.5v9.6c0,.4.4.5.6.5s.6,0,.6-.5v-9.6Z"/>
        <path class="st0" d="M86.8,79l-1.9-8.4v8.4h-2.7v-15.5h2.9l1.8,8.7v-8.7h2.7v15.5h-2.8Z"/>
      </g>
    </g>
  </g>
</svg>